<svg xmlns="http://www.w3.org/2000/svg" width="380.625" height="130.562" viewBox="0 0 380.625 130.562">
  <defs>
    <style>
      .cls-1 {
        fill: #022a45;
        fill-rule: evenodd;
      }
    </style>
  </defs>
  <path id="More_FEstivals" data-name="More  FEstivals" class="cls-1" d="M129.879,178.5h2.636V151.4l-2.636,4.981V178.5Zm5.273,0h2.637V141.293l-2.637,4.98V178.5Zm5.274,0h2.636V131.295l-2.636,5.018V178.5Zm1.94-60.645H139.4l-18.164,34.534,1.5,2.747Zm-5.969,0h-3L118.16,146.6l1.538,2.783ZM102.047,178.5h2.636V156.674l-2.636-4.981V178.5Zm-5.274,0H99.41V146.64l-2.637-4.981V178.5Zm-5.273,0h2.637V136.642L91.5,131.625V178.5Zm-2.307-60.645H86.226V178.5h2.637V122.873l20.984,39.807h2.966Zm6.006,0h-3L115.78,162.68h3ZM145.7,178.5h2.637V117.855h-3L123.25,159.9l-22.119-42.041H98.165l23.547,44.825h3L145.7,122.873V178.5Zm41.2-44.824a14.5,14.5,0,1,1-10.254,4.248A13.976,13.976,0,0,1,186.9,133.676ZM174.776,160.3a17.231,17.231,0,0,0,5.475,3.662,16.979,16.979,0,0,0,13.293,0,16.921,16.921,0,0,0,9.137-9.137,16.979,16.979,0,0,0,0-13.293,16.921,16.921,0,0,0-9.137-9.137,16.979,16.979,0,0,0-13.293,0,16.921,16.921,0,0,0-9.137,9.137,16.979,16.979,0,0,0,0,13.293A17.231,17.231,0,0,0,174.776,160.3Zm2.2-29.242a19.877,19.877,0,0,1,19.849,0,19.761,19.761,0,0,1,7.2,7.2,19.877,19.877,0,0,1,0,19.849,19.745,19.745,0,0,1-7.2,7.2,19.877,19.877,0,0,1-19.849,0,19.745,19.745,0,0,1-7.2-7.2,19.877,19.877,0,0,1,0-19.849A19.761,19.761,0,0,1,176.973,131.057Zm-1.318,36.53a22.546,22.546,0,0,0,22.485,0,22.2,22.2,0,0,0,8.167-8.167,22.546,22.546,0,0,0,0-22.485,22.207,22.207,0,0,0-8.167-8.166,22.546,22.546,0,0,0-22.485,0,22.2,22.2,0,0,0-8.166,8.166,22.546,22.546,0,0,0,0,22.485A22.2,22.2,0,0,0,175.655,167.587Zm-6.5-37.152a25.036,25.036,0,0,1,8-5.329,24.989,24.989,0,0,1,19.483,0,24.445,24.445,0,0,1,13.33,13.331,24.975,24.975,0,0,1,0,19.482,24.439,24.439,0,0,1-13.33,13.33,24.977,24.977,0,0,1-19.483,0,24.448,24.448,0,0,1-13.33-13.33,24.986,24.986,0,0,1,0-19.482A25.03,25.03,0,0,1,169.155,130.435Zm3.863,41.711a27.772,27.772,0,0,0,27.759,0,27.571,27.571,0,0,0,10.089-10.089,27.772,27.772,0,0,0,0-27.759,27.579,27.579,0,0,0-10.089-10.089,27.772,27.772,0,0,0-27.759,0A27.579,27.579,0,0,0,162.929,134.3a27.772,27.772,0,0,0,0,27.759A27.571,27.571,0,0,0,173.018,172.146Zm-7.58-45.428a30.4,30.4,0,0,1,9.686-6.464,30.09,30.09,0,0,1,23.547,0,29.751,29.751,0,0,1,16.15,16.15,30.09,30.09,0,0,1,0,23.547,29.742,29.742,0,0,1-16.15,16.15,30.09,30.09,0,0,1-23.547,0,29.751,29.751,0,0,1-16.15-16.15,30.09,30.09,0,0,1,0-23.547A30.413,30.413,0,0,1,165.438,126.718Zm-1.85,44.769a33.214,33.214,0,0,0,10.511,7.031,32.584,32.584,0,0,0,25.6,0,32.5,32.5,0,0,0,17.541-17.541,32.584,32.584,0,0,0,0-25.6A32.5,32.5,0,0,0,199.7,117.837a32.6,32.6,0,0,0-25.6,0,32.494,32.494,0,0,0-17.542,17.542,32.6,32.6,0,0,0,0,25.6A33.209,33.209,0,0,0,163.588,171.487Zm81.647-20.526h15.894a11.066,11.066,0,0,0,7.983-3.186,11.227,11.227,0,0,0,3.3-8.46,10.319,10.319,0,0,0-3.406-7.6,10.953,10.953,0,0,0-7.873-3.315H235.86v50.1H238.5V131.039h22.632a8.419,8.419,0,0,1,6.006,2.545,7.8,7.8,0,0,1,2.636,5.731,8.339,8.339,0,0,1-8.642,9.009H245.235v2.637Zm0,5.273h15.894a15.98,15.98,0,0,0,11.663-4.852,16.315,16.315,0,0,0,4.889-12.067,15.15,15.15,0,0,0-2.27-7.965,17.068,17.068,0,0,0-6.1-5.987,15.969,15.969,0,0,0-8.184-2.234H230.587V178.5h2.636V125.766h27.906a13.519,13.519,0,0,1,9.723,4.083,12.832,12.832,0,0,1,4.193,9.466,13.748,13.748,0,0,1-4.1,10.273,13.546,13.546,0,0,1-9.814,4.01H245.235v2.636Zm0,5.274h9.7l5.383,16.992h2.783l-5.346-16.992h2.38l5.6,16.992h2.783l-5.676-17.065q2.013-.183,2.344-0.257l5.969,17.322h2.783l-6.116-17.944q0.77-.221,2.234-0.806l6.519,18.75h2.783l-6.812-20a20.348,20.348,0,0,0,7.6-7.727,22.848,22.848,0,0,0,2.8-11.463,20.222,20.222,0,0,0-2.985-10.6,22.4,22.4,0,0,0-8.038-7.911,21.1,21.1,0,0,0-10.8-2.948H225.313V178.5h2.637V120.492h33.179a18.5,18.5,0,0,1,9.521,2.6,19.808,19.808,0,0,1,7.05,6.94,17.672,17.672,0,0,1,2.618,9.283,19.451,19.451,0,0,1-2.637,9.98,18.993,18.993,0,0,1-7.031,7.049,18.774,18.774,0,0,1-9.521,2.527H245.235v2.637Zm-1.465-25.2h17.359a3.486,3.486,0,0,1,2.4.86,2.748,2.748,0,0,1,.971,2.142,3.847,3.847,0,0,1-.9,2.912,3.52,3.52,0,0,1-2.472.824H245.235v2.637h15.894q6,0,6.006-6.373a5.265,5.265,0,0,0-1.777-3.973,5.969,5.969,0,0,0-4.229-1.666h-20V178.5h2.636V136.313Zm58.008-18.458h-2.637V178.5h2.637V117.855Zm-5.273,0h-2.637V178.5h2.637V117.855Zm-5.274,0h-2.637V178.5h2.637V117.855Zm15.821,36.915h14.392v-2.637H307.052V149.5h14.392v-2.637H307.052v-2.636h14.392v-2.637H307.052V131.039H335.1V128.4H307.052v-2.636H335.1v-2.637H307.052v-2.637H335.1v-2.637H304.415V178.5H335.1v-2.637H307.052v-2.636H335.1V170.59H307.052v-2.637H335.1v-2.637H307.052V154.77Zm-276.1,90.4h15v-51.6h-15v51.6ZM49.1,205.042h17.55V193.567H49.1v11.475Zm0,21.3H63.877V214.867H49.1v11.475Zm25.049,18.825h15v-51.6h-15v51.6ZM92.3,205.042h19.05V193.567H92.3v11.475Zm0,19.8h15.525V213.367H92.3v11.475Zm0,20.325h19.05V233.692H92.3v11.475Zm63.6-39.75v-10.8q-2.627-.525-4.725-0.825a102.853,102.853,0,0,0-12.75-.825h-1.875v11.625q2.4-.15,5.1-0.15,2.1,0,5.55.15,6.224,0.525,8.7.825h0Zm-12.375,40.275a28.5,28.5,0,0,0,6.262-1.013,11.353,11.353,0,0,0,4.538-2.512q4.2-3.825,4.2-13.35,0-9-3.375-12.525a8.686,8.686,0,0,0-3.45-2.1,30.319,30.319,0,0,0-5.25-1.125l-10.35-1.275a6.262,6.262,0,0,1-1.575-.263,1.27,1.27,0,0,1-.75-0.637,2.61,2.61,0,0,1-.3-1.05,15.039,15.039,0,0,1-.075-1.65V193.117q-7.352.525-10.8,3.525-4.275,3.675-4.275,12a40.986,40.986,0,0,0,.45,6.6,11.336,11.336,0,0,0,1.725,4.575q2.849,4.425,11.025,5.325l9.225,1.125a6.014,6.014,0,0,1,1.8.412,1.543,1.543,0,0,1,.75.975,8.334,8.334,0,0,1,.225,2.288v15.75Zm-3.975.075h0.825v-11.7a38.8,38.8,0,0,1-5.325.225q-1.5,0-5.1-.15-5.7-.375-10.125-0.75v10.95q1.949,0.375,5.775.75a134.416,134.416,0,0,0,13.95.675h0Zm22.5-40.2h42.225v-12H162.051v12Zm13.575,39.6h15v-36.6h-15v36.6Zm34.2,0h15v-51.6h-15v51.6Zm35.549,0H259.4l-14.025-51.6h-15.3l7.65,25.875q0.375,1.125.975,3.375,0.675,2.025,1.875,6.075l2.4,8.25q0.749,2.85,1.725,5.85Zm17.325,0h1.05l0.675-2.175q0.974-3,1.725-5.85,1.125-3.9,2.475-8.25l2.775-9.45,7.65-25.875h-15l-7.575,28.725Zm13.875,0h15l8.625-31.05-5.925-20.55H293Zm35.925,0h15.3l-16.425-51.6H297.649l8.85,30.9h-6l-3.15,11.55h12.525Zm20.325,0h15v-51.6h-15v51.6Zm18.15,0h16.05V233.092h-16.05v12.075Zm57.974-39.75v-10.8q-2.626-.525-4.725-0.825a102.853,102.853,0,0,0-12.75-.825H389.6v11.625q2.4-.15,5.1-0.15,2.1,0,5.55.15,6.224,0.525,8.7.825h0Zm-12.375,40.275a28.5,28.5,0,0,0,6.262-1.013,11.346,11.346,0,0,0,4.538-2.512q4.2-3.825,4.2-13.35,0-9-3.375-12.525a8.686,8.686,0,0,0-3.45-2.1,30.319,30.319,0,0,0-5.25-1.125l-10.35-1.275a6.262,6.262,0,0,1-1.575-.263,1.273,1.273,0,0,1-.75-0.637,2.61,2.61,0,0,1-.3-1.05,15.293,15.293,0,0,1-.075-1.65V193.117q-7.351.525-10.8,3.525-4.275,3.675-4.275,12a40.986,40.986,0,0,0,.45,6.6,11.336,11.336,0,0,0,1.725,4.575q2.849,4.425,11.025,5.325l9.225,1.125a6.014,6.014,0,0,1,1.8.412,1.543,1.543,0,0,1,.75.975,8.334,8.334,0,0,1,.225,2.288v15.75Zm-3.975.075h0.825v-11.7a38.8,38.8,0,0,1-5.325.225q-1.5,0-5.1-.15-5.7-.375-10.125-0.75v10.95q1.95,0.375,5.775.75a134.429,134.429,0,0,0,13.95.675h0Z" transform="translate(-30.938 -115.219)"/>
</svg>
